<?xml version="1.0"?>
<svg id="gyungnam-map" xmlns="http://www.w3.org/2000/svg" version="1.2" baseProfile="tiny" width="648" height="594" viewBox="0 0 800 666" stroke-linecap="round" stroke-linejoin="round">
<style>
  path {
    fill: rgb(230, 230, 230);
    stroke: gray;
    cursor: pointer;
    transition: fill 0.3s;
  }

  path:hover {
    fill: rgb(174, 211, 255);
  }

  path.selected {
    fill:rgb(0, 168, 62) !important; /* 초록색 - Tailwind green-500 */
    fill-opacity: 0.7;
  }

  text {
    fill: black;
    font-size: 12px;
    pointer-events: none;
    text-anchor: middle;
  }
</style>
<g id="gyungnam-map">
<path id="jinju" d="M 326.88 377.56 323.87 378.51 304.16 387.48 305.41 402.71 296.39 415.51 279.09 403.44 281.61 386.31 259.33 388.79 233.25 376.79 217.57 384.51 209.05 384.69 203.87 364.13 193.5 364.23 178.83 364.39 155.07 344.34 153.54 329.97 167.72 317.89 181.25 322.71 192.21 317.9 200.08 300.65 223.54 290.47 228.92 291.31 232.26 288.03 235.33 277.99 262.47 279.3 281.78 269.49 286.52 276.74 290.75 280.69 293.5 303.19 311.07 312.4 339.93 314.98 355.23 331.22 366.89 339.58 385.22 345.68 382.59 371.02 375.71 378.35 354.4 378.22 339.04 375.94 337.66 375.98 326.88 377.56 Z"/>
<path id="tongyeong" d="M 420.52 525.92 418.29 545.84 403.98 555.23 389.35 537.83 393.31 522.78 403.21 521.54 396.36 506.33 409.47 507.86 408.64 504.4 393.59 503.78 389.42 492.82 383.27 503.14 366.21 500.41 351.68 487.25 372.94 476.28 373.87 470.34 392.59 465.45 392.93 464.94 412.37 451.9 421.83 453.12 410.98 491.02 411.45 501.11 423.24 485.69 435.58 495.96 424.56 514.93 413.4 515.4 411.89 518.5 420.52 525.92 Z M 322.21 518.59 334.89 528.08 326.24 537.43 310.47 529.68 322.21 518.59 Z" fill-rule="evenodd"/>
<path id="sacheon" d="M 281.61 386.31 279.09 403.44 296.39 415.51 285.75 426.63 287.45 442.71 287.51 448.05 272.24 454.19 264.76 477.85 248.6 475.5 241.67 475.84 241.74 475.29 222.67 460.1 225.56 443.46 226.94 417.1 235.17 402.65 234.21 397.53 227.34 404.01 219.44 423.7 195.66 423.59 215.98 435.03 198.42 450.74 169.19 433.11 173.21 417.23 154.17 397.97 159.09 397.45 159.52 379.19 148.25 369.59 178.83 364.39 193.5 364.23 203.87 364.13 209.05 384.69 217.57 384.51 233.25 376.79 259.33 388.79 281.61 386.31 Z"/>
<path id="gimhae" d="M 557.13 321.26 555.99 321.75 545.11 289.22 570.57 278.71 576.81 271.28 592.55 269.53 594.12 262.64 601.81 254.95 621.71 248.73 630.39 255.19 633 260.07 652.77 264.61 678.99 286.62 679.41 288.29 697.13 304.6 698.39 307.26 691.1 326.14 659.67 332.08 649.73 331.88 642.36 336.39 637.12 335.73 630.91 355.28 608.77 364.31 592.07 363.68 577.11 358.18 566.62 358.84 571.6 342.23 557.72 334.39 558.04 326.54 557.13 321.26 Z"/>
<path id="miryang" d="M 646.98 226.53 630.39 255.19 621.71 248.73 601.81 254.95 594.12 262.64 592.55 269.53 576.81 271.28 563.17 270.54 544.84 257.44 531.44 256.12 525.35 259.02 519.29 249.74 522.87 233.34 487.44 217.04 484.85 207.84 484.31 204.13 493.99 188.98 486.97 179.21 490.94 158.46 494.89 156.25 526.25 149.74 545.36 157.32 554.01 159.2 588.74 165.1 596.22 154.25 616.05 153.94 636.7 134.15 654.92 130.26 702.06 155.93 678.14 167.75 689.59 183.11 669.53 197.01 676.52 215.24 646.98 226.53 Z"/>
<path id="geoje" d="M 564.24 515.07 551 531.21 533.74 530.54 534.17 543.95 519.18 557.36 503.04 585.02 488.5 577.76 487.72 555.95 497.62 552.94 480.58 553.69 493.6 522.82 469.64 520.33 457.54 533.08 440.58 517.29 436.55 502.89 461.78 477.29 472.74 484.4 491.23 481.72 506.89 492.73 510.51 489.61 491.52 467.83 496.81 456.66 520.66 439.8 526.21 449.31 534.36 424.76 552.9 424.35 543.88 441.09 545.24 452.98 559.89 465.67 556.5 483.89 545.03 492.67 544.67 497.52 555.56 499.53 556.41 496.73 567.82 503.58 564.24 515.07 Z"/>
<path id="yangsan" d="M 697.13 304.6 679.41 288.29 678.99 286.62 652.77 264.61 633 260.07 630.39 255.19 646.98 226.53 676.52 215.24 669.53 197.01 689.59 183.11 714.65 190.22 744.07 199.63 762.98 224.17 772.6 230.06 787.59 226.6 799 241.28 786.69 253.62 777 269.3 759.51 262.2 755.16 265.56 746.46 290.02 717 303.77 698.39 307.26 697.13 304.6 Z"/>
<path id="uichang" d="M 545.11 289.22 555.99 321.75 557.13 321.26 558.04 326.54 543.65 326.93 542.61 332.97 538.97 330.6 533.59 327.37 536.71 323.79 523.41 322.68 533.46 327.38 522.98 333.3 510.53 335.74 501.41 322.42 499.12 320.56 499.19 316.94 498.15 315.89 493.82 308.08 480.28 281.73 486.9 255.85 496.63 248.88 519 259.14 525.35 259.02 531.44 256.12 544.84 257.44 563.17 270.54 576.81 271.28 570.57 278.71 545.11 289.22 Z"/>
<path id="seongsan" d="M 536.71 323.79 533.59 327.37 538.97 330.6 542.61 332.97 543.65 326.93 558.04 326.54 557.72 334.39 571.6 342.23 566.62 358.84 565.27 363.86 553.13 359.26 544.03 357.96 541.69 357.49 535.06 355 534.41 354.71 521.11 354.7 503.72 367.96 492.85 343.01 507.54 336.75 510.53 335.74 522.98 333.3 533.46 327.38 523.41 322.68 536.71 323.79 Z"/>
<path id="masanhappo" d="M 485.78 375.23 515.91 407.04 485.65 414.78 466.75 383.15 458.6 392.88 432.95 390.85 430.88 405.21 411.86 412.6 414.71 398.84 384.88 387.1 377.2 379.9 375.71 378.35 382.59 371.02 385.22 345.68 395.78 339.5 403.69 343.63 410.56 357.79 439.32 348.79 450.9 353.69 459.67 353.47 469.06 347.89 469.26 346.61 468.51 340.25 466.78 338.02 483.49 334.98 486.8 335.6 488 333.03 493.02 333.65 492.11 336.9 491.52 338.18 490.71 339.7 483.84 346.36 481.09 349.19 481.1 349.52 485.25 354.82 492.62 367.81 485.78 375.23 Z"/>
<path id="masanhoewon" d="M 466.78 338.02 468.51 340.25 469.26 346.61 469.06 347.89 459.67 353.47 450.9 353.69 439.32 348.79 437.01 331.98 445.07 307.05 487.48 309.27 493.82 308.08 498.15 315.89 499.19 316.94 499.12 320.56 501.41 322.42 510.53 335.74 507.54 336.75 491.52 338.18 492.11 336.9 493.02 333.65 488 333.03 486.8 335.6 483.49 334.98 466.78 338.02 Z"/>
<path id="jinhae" d="M 534.41 354.71 535.06 355 541.69 357.49 544.03 357.96 553.13 359.26 565.27 363.86 566.62 358.84 577.11 358.18 592.07 363.68 611.87 378.61 604.16 399.63 589.77 388.96 582.09 391.9 575.63 405.06 550.35 389.14 544.9 373 542.01 368.73 541.17 368.65 541.16 368.38 536.17 368.85 535.39 379.67 503.72 367.96 521.11 354.7 534.41 354.71 Z"/>
<path id="uiryeong" d="M 360.99 281.87 360.57 283.15 351.33 287.11 345.54 305.51 339.93 314.98 311.07 312.4 293.5 303.19 290.75 280.69 286.52 276.74 281.78 269.49 262.47 279.3 245.79 260.24 292.51 247.86 298.77 246.38 296.95 236.43 311.94 215.94 304.53 208.07 333.93 198.56 334.13 195.09 336.05 192.61 348.97 188.79 383.97 197.06 387.5 187.98 388.32 188.28 412.56 207.1 388.98 220.46 389.43 226.13 412.04 237.55 418.71 249.42 407.9 265.75 392.59 267 399.08 276.75 380.18 275.75 359.68 264.65 360.99 281.87 Z"/>
<path id="haman" d="M 403.69 343.63 395.78 339.5 385.22 345.68 366.89 339.58 355.23 331.22 339.93 314.98 345.54 305.51 351.33 287.11 360.57 283.15 360.99 281.87 359.68 264.65 380.18 275.75 399.08 276.75 392.59 267 407.9 265.75 418.71 249.42 434.01 255.29 448.54 247.89 458.6 248.44 472.51 254.87 486.9 255.85 480.28 281.73 493.82 308.08 487.48 309.27 445.07 307.05 437.01 331.98 439.32 348.79 410.56 357.79 403.69 343.63 Z"/>
<path id="changnyeong" d="M 486.97 179.21 493.99 188.98 484.31 204.13 484.85 207.84 487.44 217.04 522.87 233.34 519.29 249.74 525.35 259.02 519 259.14 496.63 248.88 486.9 255.85 472.51 254.87 458.6 248.44 448.54 247.89 434.01 255.29 418.71 249.42 412.04 237.55 389.43 226.13 388.98 220.46 412.56 207.1 388.32 188.28 387.5 187.98 378.05 180.23 379.23 153.05 382.7 142.87 398.87 141.72 425.34 130.18 452.54 129.42 494.89 156.25 490.94 158.46 486.97 179.21 Z"/>
<path id="goseong" d="M 392.93 464.94 392.59 465.45 373.87 470.34 361.06 458.65 354.98 479.37 344.25 486.35 320.92 468.03 301.93 470.66 305.09 491.31 286.19 489.23 271.23 494.43 264.76 477.85 272.24 454.19 287.51 448.05 287.45 442.71 285.75 426.63 296.39 415.51 305.41 402.71 304.16 387.48 323.87 378.51 326.88 377.56 337.66 375.98 339.04 375.94 354.4 378.22 375.71 378.35 377.2 379.9 384.88 387.1 414.71 398.84 411.86 412.6 388.41 418.89 379.13 435.24 395.45 431.59 395.72 422.9 440.8 407.84 439.12 443.52 404.79 443.07 421.83 453.12 412.37 451.9 392.93 464.94 Z"/>
<path id="namhae" d="M 159.56 507.67 171.08 522.09 188.97 533.07 205.79 520.86 236.19 526.4 233.25 554.12 234.44 563.52 211.41 574.66 186.96 581.4 179.51 562.74 167.11 552.14 161.16 572.36 142.3 572.9 127.26 561.15 128.6 542.29 115.87 519.82 114.35 505.85 124.11 494.39 137.99 477.65 153.82 465.59 172.94 481.38 158.98 498.2 159.56 507.67 Z M 222.41 478.41 239.32 502.87 237.59 522.29 191.56 515.87 188.06 503.16 210.19 478.98 222.41 478.41 Z" fill-rule="evenodd"/>
<path id="hadong" d="M 98.56 427.48 94.5 415.44 80.72 409.84 58.53 389.88 58.69 380.54 45.66 365.96 22.97 348.41 21.53 324.77 1 291.19 22.51 278.59 55.71 284.98 63.96 311.61 84.68 318.55 102.05 332.66 122.17 332.18 140.87 313.87 153.54 329.97 155.07 344.34 178.83 364.39 148.25 369.59 159.52 379.19 159.09 397.45 154.17 397.97 173.21 417.23 169.19 433.11 163.85 447.71 144.47 466.01 128.44 462.11 102.51 468.96 92.74 453.14 99.16 445.33 98.56 427.48 Z"/>
<path id="sancheong" d="M 187.28 188.17 194.33 199.6 198.94 219.94 223.76 238.26 232.19 236.95 239 247.38 245.79 260.24 262.47 279.3 235.33 277.99 232.26 288.03 228.92 291.31 223.54 290.47 200.08 300.65 192.21 317.9 181.25 322.71 167.72 317.89 153.54 329.97 140.87 313.87 122.17 332.18 102.05 332.66 84.68 318.55 63.96 311.61 55.71 284.98 77.67 273.23 86.7 253.99 84.6 248.05 97.09 223.69 116.75 211.35 112.34 202.11 117.37 186.54 137.03 163.48 143.62 160.77 147.71 183.59 170.44 189.74 187.28 188.17 Z"/>
<path id="hamyang" d="M 46.29 222.75 34.48 221.7 37.28 198.34 25.1 181.62 5.51 170.69 22.86 141.35 29.82 139.67 22.35 127.9 33.04 103.6 42.1 95.36 50.97 66.46 77.71 90.87 90.83 85.13 107.81 98.56 131.96 121.06 147.01 114.97 147.19 129.5 140.81 144.74 126.75 156.86 137.03 163.48 117.37 186.54 112.34 202.11 116.75 211.35 97.09 223.69 84.6 248.05 86.7 253.99 77.67 273.23 55.71 284.98 22.51 278.59 17.58 262.34 41.42 238.89 46.29 222.75 Z"/>
<path id="geochang" d="M 147.19 129.5 147.01 114.97 131.96 121.06 107.81 98.56 90.83 85.13 77.71 90.87 50.97 66.46 70.64 52.8 79.91 38.45 115.88 25.9 129.57 19.08 142.32 1 154.99 9.51 192.79 26.7 212.68 37.53 250.81 36.59 232.88 48.82 228.24 74.77 242.85 99.19 252.94 104.73 242.15 113.19 216.96 123.32 205.73 134.98 199.36 144.43 194.42 169.07 187.28 188.17 170.44 189.74 147.71 183.59 143.62 160.77 137.03 163.48 126.75 156.86 140.81 144.74 147.19 129.5 Z"/>
<path id="hapcheon" d="M 283.38 120.51 286.28 122.67 318.29 129.49 341.12 125.95 351.1 121.36 379.09 128.02 382.7 142.87 379.23 153.05 378.05 180.23 387.5 187.98 383.97 197.06 348.97 188.79 336.05 192.61 334.13 195.09 333.93 198.56 304.53 208.07 311.94 215.94 296.95 236.43 298.77 246.38 292.51 247.86 245.79 260.24 239 247.38 232.19 236.95 223.76 238.26 198.94 219.94 194.33 199.6 187.28 188.17 194.42 169.07 199.36 144.43 205.73 134.98 216.96 123.32 242.15 113.19 252.94 104.73 242.85 99.19 228.24 74.77 232.88 48.82 250.81 36.59 267.05 40.69 269.32 56.7 285.16 66.24 298.67 74.68 306.05 101.38 284.48 116.05 283.38 120.51 Z"/>
<text x="160" y="86" text-anchor="middle" class="fill-black text-sm pointer-events-none">
    거창군
</text>
<text x="270" y="174" text-anchor="middle" class="fill-black text-sm pointer-events-none">
    합천군
</text>
<text x="440" y="194" text-anchor="middle" class="fill-black text-sm pointer-events-none">
    창녕군
</text>
<text x="75" y="173" text-anchor="middle" class="fill-black text-sm pointer-events-none">
    함양군
</text>
<text x="150" y="263" text-anchor="middle" class="fill-black text-sm pointer-events-none">
    산청군
</text>
<text x="100" y="380" text-anchor="middle" class="fill-black text-sm pointer-events-none">
    하동군
</text>
<text x="335" y="255" text-anchor="middle" class="fill-black text-sm pointer-events-none">
    의령군
</text>
<text x="405" y="305" text-anchor="middle" class="fill-black text-sm pointer-events-none">
    함안군
</text>
<text x="265" y="345" text-anchor="middle" class="fill-black text-sm pointer-events-none">
    진주시
</text>
<text x="575" y="210" text-anchor="middle" class="fill-black text-sm pointer-events-none">
    밀양시
</text>
<text x="710" y="250" text-anchor="middle" class="fill-black text-sm pointer-events-none">
    양산시
</text>
<text x="615" y="310" text-anchor="middle" class="fill-black text-sm pointer-events-none">
    김해시
</text>
<text x="532" y="348" text-anchor="middle" class="fill-black text-sm pointer-events-none">
    성산구
</text>
<text x="570" y="380" text-anchor="middle" class="fill-black text-sm pointer-events-none">
    진해구
</text>
<text x="520" y="293" text-anchor="middle" class="fill-black text-sm pointer-events-none">
    의창구
</text>
<text x="471" y="328" text-anchor="middle" class="fill-black text-sm pointer-events-none">
    마산회원구
</text>
<text x="434" y="375" text-anchor="middle" class="fill-black text-sm pointer-events-none">
    마산합포구
</text>
<text x="512" y="513" text-anchor="middle" class="fill-black text-sm pointer-events-none">
    거제시
</text>
<text x="157" y="540" text-anchor="middle" class="fill-black text-sm pointer-events-none">
    남해군
</text>
<text x="393" y="487" text-anchor="middle" class="fill-black text-sm pointer-events-none">
    통영시
</text>
<text x="340" y="434" text-anchor="middle" class="fill-black text-sm pointer-events-none">
    고성군
</text>
<text x="200" y="405" text-anchor="middle" class="fill-black text-sm pointer-events-none">
    사천시
</text>

</g>
</svg>